<svg width="48" height="48" viewBox="0 0 48 48" fill="none" xmlns="http://www.w3.org/2000/svg">
<path d="M19 2.88675C22.094 1.10042 25.906 1.10042 29 2.88675L39.7846 9.11325C42.8786 10.8996 44.7846 14.2008 44.7846 17.7735V30.2265C44.7846 33.7992 42.8786 37.1004 39.7846 38.8868L29 45.1132C25.906 46.8996 22.094 46.8996 19 45.1132L8.21539 38.8868C5.12138 37.1004 3.21539 33.7992 3.21539 30.2265V17.7735C3.21539 14.2008 5.12138 10.8996 8.21539 9.11325L19 2.88675Z" fill="url(#paint0_linear_22_55)"/>
<path d="M14 34H26M20 14H32M20 34L22.4 26M26 14L23.6 22" stroke="white" stroke-width="1.5" stroke-linecap="round" stroke-linejoin="round"/>
<g style="mix-blend-mode:soft-light">
<path d="M15 34H27M21 14H33M21 34L23.4 26M27 14L24.6 22" stroke="white" stroke-width="1.5" stroke-linecap="round" stroke-linejoin="round"/>
</g>
<defs>
<linearGradient id="paint0_linear_22_55" x1="24" y1="0" x2="24" y2="48" gradientUnits="userSpaceOnUse">
<stop stop-color="#00A3FF"/>
<stop offset="1" stop-color="#0084FF"/>
</linearGradient>
</defs>
</svg>
